<?xml version="1.0" standalone="no"?>
<!DOCTYPE svg PUBLIC "-//W3C//DTD SVG 20010904//EN"
 "http://www.w3.org/TR/2001/REC-SVG-20010904/DTD/svg10.dtd">
<svg version="1.0" xmlns="http://www.w3.org/2000/svg"
 width="553.000000pt" height="553.000000pt" viewBox="0 0 553.000000 553.000000"
 preserveAspectRatio="xMidYMid meet">
<metadata>
Created by potrace 1.14, written by Peter Selinger 2001-2017
</metadata>
<g transform="translate(0.000000,553.000000) scale(0.100000,-0.100000)"
fill="#000000" stroke="none">
<path d="M779 4926 c-19 -9 -25 -22 -29 -59 -8 -74 -25 -87 -119 -87 -54 0
-82 -4 -90 -13 -11 -14 -27 -86 -37 -167 -6 -55 -11 -60 -62 -67 -71 -10 -79
-28 -87 -187 -3 -77 -7 -142 -9 -145 -2 -3 -7 -42 -10 -86 -4 -44 -9 -87 -11
-95 -2 -8 -7 -60 -10 -115 -4 -55 -8 -102 -10 -105 -1 -3 -6 -41 -9 -85 -4
-44 -9 -96 -11 -115 -2 -19 -7 -66 -10 -103 -4 -37 -8 -76 -10 -85 -2 -15 -12
-110 -20 -202 -9 -103 -17 -183 -25 -255 -8 -75 -12 -111 -25 -260 -5 -56 -12
-127 -21 -203 -2 -18 -6 -79 -10 -135 -3 -55 -7 -109 -9 -119 -3 -16 -13 -154
-19 -280 -4 -78 -47 -69 414 -82 391 -11 800 -102 1106 -246 106 -50 194 -106
352 -224 54 -40 133 -96 176 -124 50 -33 92 -69 113 -99 19 -27 38 -47 42 -46
4 1 55 33 112 72 85 57 332 191 351 191 3 0 23 8 44 17 22 9 41 17 44 18 3 0
34 10 70 22 64 21 167 45 245 58 99 17 302 41 334 41 l36 -1 8 -65 c7 -58 42
-275 83 -510 15 -89 32 -150 41 -150 4 0 37 26 128 102 71 59 246 204 335 277
58 47 111 91 118 98 7 7 19 13 25 13 7 0 62 -62 122 -137 61 -75 115 -141 120
-147 9 -10 66 -78 116 -141 27 -33 143 -169 154 -181 5 -6 24 -26 40 -45 17
-19 38 -40 46 -46 17 -14 5 -22 173 121 130 110 227 191 275 231 14 11 40 34
58 50 l34 30 -73 92 c-40 50 -122 155 -183 233 -60 78 -118 151 -128 163 -47
56 -190 246 -189 252 0 4 73 62 162 130 285 217 374 305 400 394 8 28 6 33
-13 41 -12 6 -137 53 -277 106 -140 53 -286 107 -323 122 l-69 26 7 90 c3 49
8 92 10 96 1 3 6 43 10 90 3 47 8 101 10 120 2 19 7 67 10 105 4 39 8 81 10
95 2 14 7 54 10 90 3 36 8 83 10 105 2 22 7 74 10 115 4 41 8 86 10 100 7 49
15 126 20 195 3 39 10 108 15 155 16 141 18 135 -44 149 l-54 12 4 67 c2 37 6
92 8 123 l5 55 -77 13 c-148 23 -132 11 -131 102 1 44 -1 82 -4 85 -25 25
-418 25 -572 0 -393 -63 -621 -146 -910 -329 -213 -135 -422 -303 -502 -405
l-18 -23 -66 73 c-36 40 -108 127 -159 193 -212 271 -284 341 -490 477 -111
73 -345 193 -445 228 -195 69 -465 137 -573 144 -34 2 -70 -1 -83 -8z"/>
</g>
</svg>
